<svg xmlns="http://www.w3.org/2000/svg" xmlns:xlink="http://www.w3.org/1999/xlink" width="400" height="400" viewBox="0 0 400 400">
<rect data-name="background" width="100%" height="100%" fill="#ffffff"/><g data-name="watermark" class="watermark-logodesign" stroke="#ffffff" transform="translate(10, 320) scale(1.5) rotate(-45)" style="opacity:0.040000010281801224;"><path fill="#000000" d="M22.92,19.2q3.04,1.68,4.8,4.7t1.76,6.78t-1.76,6.78t-4.8,4.7t-6.68,1.68t-6.7-1.68t-4.84-4.7t-1.78-6.78t1.78-6.78t4.84-4.7t6.7-1.68t6.68,1.68z M11.14,21.74q-2.26,1.3-3.54,3.62t-1.28,5.32t1.28,5.32t3.54,3.6t5.1,1.28t5.08-1.28t3.52-3.6t1.28-5.32t-1.28-5.32t-3.54-3.62t-5.06-1.3q-2.84,0-5.1,1.3z M21.4,24.76l-1.8,2.32q-0.72-0.56-1.4-0.78t-1.48-0.22q-1.44,0-2.3,1.1t-0.86,3.46q0,2.32,0.82,3.44t2.26,1.12q0.96,0,1.74-0.3t1.54-0.9l1.64,2.44q-2.24,2.04-5.2,2.04q-3.2,0-5.08-2.04t-1.88-5.8q0-2.4,0.9-4.16t2.48-2.7t3.54-0.94q2.92,0,5.08,1.92z M41.2,20.32l0,22.96l10.96,0l-0.64,4.72l-16.2,0l0-27.68l5.88,0z M71.92,29.14q2.68,2.98,2.68,8.26q0,3.36-1.22,5.9t-3.52,3.94t-5.42,1.4q-4.76,0-7.46-2.98t-2.7-8.26q0-3.36,1.22-5.9t3.52-3.94t5.46-1.4q4.76,0,7.44,2.98z M61.26,32.1q-1.06,1.7-1.06,5.3t1.06,5.3t3.18,1.7t3.18-1.7t1.06-5.3t-1.04-5.3t-3.16-1.7q-2.16,0-3.22,1.7z M97.88,27.96q-2.08,0.8-6.12,0.8q2,0.88,2.96,2.18t0.96,3.26q0,2.04-1.06,3.66t-3.04,2.54t-4.62,0.92q-1.4,0-2.48-0.28q-0.8,0.52-0.8,1.4q0,0.64,0.5,1.02t1.94,0.38l3.24,0q2.36,0,4.14,0.78t2.76,2.16t0.98,3.14q0,3.24-2.78,5.06t-8.02,1.82q-3.76,0-5.94-0.78t-3.06-2.26t-0.88-3.72l5.08,0q0,1.04,0.4,1.66t1.46,0.92t3.06,0.3q2.76,0,3.86-0.68t1.1-1.92q0-1.12-0.84-1.72t-2.48-0.6l-3.12,0q-3.16,0-4.72-1.18t-1.56-2.98q0-1.12,0.66-2.18t1.82-1.78q-1.96-1.08-2.86-2.54t-0.9-3.5q0-2.32,1.14-4.06t3.2-2.68t4.7-0.94q3.28,0.08,5.4-0.56t4.52-2z M84.14,30.98q-0.94,1.02-0.94,2.78q0,1.8,0.94,2.84t2.58,1.04q1.72,0,2.6-1t0.88-2.96q0-3.72-3.52-3.72q-1.6,0-2.54,1.02z M117.04,29.14q2.68,2.98,2.68,8.26q0,3.36-1.22,5.9t-3.52,3.94t-5.42,1.4q-4.76,0-7.46-2.98t-2.7-8.26q0-3.36,1.22-5.9t3.52-3.94t5.46-1.4q4.76,0,7.44,2.98z M106.38,32.1q-1.06,1.7-1.06,5.3t1.06,5.3t3.18,1.7t3.18-1.7t1.06-5.3t-1.04-5.3t-3.16-1.7q-2.16,0-3.22,1.7z M141.78,23.26q3.9,2.94,3.9,10.78q0,7.68-3.82,10.82t-9.78,3.14l-7.92,0l0-27.68l7.24,0q6.48,0,10.38,2.94z M130.04,24.64l0,19.04l2.4,0q3.4,0,5.26-2.1t1.86-7.54q0-3.76-0.94-5.84t-2.5-2.82t-3.8-0.74l-2.28,0z M167.84,39.12l-13.24,0q0.28,2.88,1.56,4.08t3.48,1.2q1.36,0,2.56-0.44t2.6-1.4l2.36,3.2q-3.56,2.88-8.04,2.88q-5,0-7.68-3t-2.68-8.12q0-3.24,1.14-5.82t3.32-4.06t5.18-1.48q4.52,0,7.04,2.84t2.52,7.92q0,0.4-0.12,2.2z M162.32,35.32q0-5.28-3.8-5.28q-1.76,0-2.74,1.3t-1.18,4.22l7.72,0l0-0.24z M186.8,28.72l-2.16,3.24q-2.68-1.68-5.28-1.68q-1.4,0-2.16,0.52t-0.76,1.4q0,0.64,0.34,1.08t1.28,0.84t2.82,0.96q3.36,0.92,5,2.46t1.64,4.22q0,2.12-1.22,3.68t-3.3,2.38t-4.64,0.82q-2.68,0-4.88-0.82t-3.76-2.26l2.8-3.12q2.68,2.08,5.68,2.08q1.6,0,2.54-0.62t0.94-1.7q0-0.84-0.36-1.32t-1.32-0.9t-3-0.98q-3.2-0.88-4.74-2.5t-1.54-4.02q0-1.8,1.04-3.24t2.94-2.26t4.42-0.82q4.48,0,7.68,2.56z M196.92,26.8l0,21.2l-5.68,0l0-21.2l5.68,0z M196.54,16.82q0.98,0.94,0.98,2.38t-0.98,2.38t-2.5,0.94t-2.48-0.94t-0.96-2.38t0.96-2.38t2.48-0.94t2.5,0.94z M221.48,27.96q-2.08,0.8-6.12,0.8q2,0.88,2.96,2.18t0.96,3.26q0,2.04-1.06,3.66t-3.04,2.54t-4.62,0.92q-1.4,0-2.48-0.28q-0.8,0.52-0.8,1.4q0,0.64,0.5,1.02t1.94,0.38l3.24,0q2.36,0,4.14,0.78t2.76,2.16t0.98,3.14q0,3.24-2.78,5.06t-8.02,1.82q-3.76,0-5.94-0.78t-3.06-2.26t-0.88-3.72l5.08,0q0,1.04,0.4,1.66t1.46,0.92t3.06,0.3q2.76,0,3.86-0.68t1.1-1.92q0-1.12-0.84-1.72t-2.48-0.6l-3.12,0q-3.16,0-4.72-1.18t-1.56-2.98q0-1.12,0.66-2.18t1.82-1.78q-1.96-1.08-2.86-2.54t-0.9-3.5q0-2.32,1.14-4.06t3.2-2.68t4.7-0.94q3.28,0.08,5.4-0.56t4.52-2z M207.74,30.98q-0.94,1.02-0.94,2.78q0,1.8,0.94,2.84t2.58,1.04q1.72,0,2.6-1t0.88-2.96q0-3.72-3.52-3.72q-1.6,0-2.54,1.02z M240.48,27.86q1.56,1.7,1.56,4.7l0,15.44l-5.68,0l0-14.48q0-1.72-0.58-2.42t-1.74-0.7q-1.2,0-2.18,0.74t-1.9,2.22l0,14.64l-5.68,0l0-21.2l4.92,0l0.44,2.68q1.32-1.64,2.9-2.48t3.58-0.84q2.8,0,4.36,1.7z M251.84,42.8q1,1,1,2.4t-1,2.42t-2.44,1.02q-1.4,0-2.4-1.02t-1-2.42t1-2.4t2.4-1q1.44,0,2.44,1z M271.8,48l-1.56-6.2l-8.68,0l-1.56,6.2l-6.12,0l8.52-27.68l7.16,0l8.48,27.68l-6.24,0z M262.68,37.44l6.44,0l-3.24-12.76z M286.48,20.32l0,27.68l-5.88,0l0-27.68l5.88,0z"/></g><g data-name="icon" fill="#7b82d3" data="id:7244231" transform="translate(7.753927694211097,139.33087982398402) scale(1.2131641770616965)">
    
 <path d="m50 3.5195c-12.332-0.003906-24.156 4.8945-32.879 13.613-8.7188 8.7188-13.621 20.543-13.621 32.875 0 12.328 4.8984 24.156 13.617 32.875s20.547 13.617 32.875 13.617c12.332 0 24.156-4.9023 32.875-13.621 8.7188-8.7227 13.617-20.547 13.613-32.879-0.019531-12.32-4.9219-24.133-13.633-32.848-8.7148-8.7109-20.527-13.613-32.848-13.633zm41.879 46.48c-0.007812 11.105-4.4258 21.75-12.277 29.602-7.8516 7.8516-18.496 12.27-29.602 12.277-11.094-0.007812-21.734-4.418-29.586-12.258-7.8477-7.8438-12.27-18.477-12.293-29.57 0-11.113 4.4102-21.77 12.262-29.629 7.8555-7.8594 18.508-12.281 29.617-12.293 11.102 0.015625 21.742 4.4297 29.594 12.277 7.8477 7.8516 12.262 18.492 12.277 29.594h0.007812z"/>
 <path d="m89.77 18.352 5-5.0508c1.9688-2.2695 1.8516-5.6758-0.26562-7.8047-2.1172-2.1328-5.5195-2.2695-7.8047-0.31641l-5 5.0508c2.9805 2.4023 5.6875 5.125 8.0703 8.1211z"/>
 <path d="m81.672 47.82h5.7617-0.003906c-0.54688-9.1719-4.4375-17.82-10.934-24.316s-15.145-10.387-24.316-10.934v5.7617-0.003906c0.042968 0.60547-0.17188 1.2031-0.58594 1.6445-0.41406 0.44531-0.99219 0.69531-1.5977 0.69531-0.60938 0-1.1875-0.25-1.6016-0.69531-0.41406-0.44141-0.625-1.0391-0.58594-1.6445v-5.7578c-9.168 0.54688-17.82 4.4375-24.316 10.934-6.4922 6.4961-10.383 15.145-10.934 24.316h5.7617c1.1484 0.078126 2.043 1.0312 2.043 2.1836s-0.89453 2.1094-2.043 2.1875h-5.7617c0.55078 9.168 4.4414 17.816 10.938 24.312s15.145 10.387 24.312 10.938v-5.7695c0.078125-1.1523 1.0352-2.043 2.1875-2.043s2.1055 0.89062 2.1836 2.043v5.7695c9.168-0.55078 17.82-4.4414 24.312-10.938 6.4961-6.4961 10.387-15.145 10.938-24.312h-5.7578c-1.1523-0.078125-2.043-1.0352-2.043-2.1875s0.89062-2.1055 2.043-2.1836zm-9.1133-17.461-13.559 27.641c-0.21484 0.43359-0.56641 0.78516-1 1l-27.648 13.57c-0.3125 0.16016-0.65234 0.23828-1 0.23047-0.58203-0.003906-1.1367-0.23438-1.5508-0.64062-0.66406-0.66406-0.82812-1.6797-0.41016-2.5195l13.609-27.641c0.19922-0.44531 0.55469-0.80078 1-1l27.629-13.602c0.83984-0.41797 1.8555-0.25 2.5156 0.41406 0.66406 0.66406 0.82812 1.6797 0.40625 2.5156z"/>
 <path d="m34.191 65.809 21.188-10.418 10.43-21.191-21.199 10.422z"/>

    </g><g data-name="business_name" fill="#2f2f2f" data="id:285" transform="translate(144.48980907199746,106.78718988786353) scale(2.3706209399082696)"><path d="M2.24,20.84q0.6,0.04,1.5,0.06t1.9,0.04t1.9,0.02l1.42,0l0,21.52q0,1.48,0.28,2.28t1.08,1.12t2.28,0.32l0,1.8l-2.58,0t-2.96,0.02t-2.78,0.04t-2.04,0.06q0-0.56,0.04-0.98t0.16-0.74q1.08-0.08,1.68-0.4t0.84-1.14t0.24-2.38l0-16.44q0-1.36-0.24-2.08t-0.84-1.04t-1.68-0.36q-0.12-0.32-0.16-0.78t-0.04-0.94z M20.64,41.16q0.6,0.16,1,0.38t0.76,0.58q-0.44,1.36-0.74,2.96t-0.5,3q-0.76-0.04-2.06-0.04t-2.96-0.02t-3.54-0.02l0-1.8l0.24,0q2.88,0,4.34-0.58t2.18-1.7t1.28-2.76z M17.84,30q-0.04,1-0.06,2.16t-0.02,2.2t0.02,2.32t0.06,2.32q-0.52,0-0.96-0.04t-0.88-0.16q-0.16-2.08-1.1-2.82t-3.42-0.74l-2.88,0l0-1.72l2.88,0q2.48,0,3.44-0.64t1-2.6q0.52-0.16,0.96-0.22t0.96-0.06z M20.2,20.84q0.08,0.88,0.2,2.04t0.28,2.28t0.36,2q-0.32,0.28-0.78,0.38t-1.02,0.1q-0.08-1.24-0.64-2.4t-1.94-1.92t-3.98-0.76l-4.56,0l0.84-1.6q3.16,0,5.42-0.02t3.72-0.06t2.1-0.04z M34.12,40.08l-1.96,2.88q-1.24,1.84-1.02,2.64t1.38,0.8q0.12,0.28,0.18,0.76t0.06,0.92q-1.12-0.08-2.36-0.08l-1.84,0l-1.26,0t-2.06,0.08q0-0.44,0.04-0.9t0.2-0.78q0.72-0.04,1.36-0.34t1.38-1.06t1.74-2.16l2.92-4.08z M36.12,43.92q-0.52-0.84-1.16-1.78t-1.32-1.9l-0.6-0.88q-0.88-1.28-1.76-2.48t-1.56-2.12q-1.12-1.52-1.76-2.26t-1.08-1t-1.08-0.3q-0.16-0.32-0.22-0.74t-0.06-0.86q0.88,0.04,1.96,0.06t2.24,0.02t2.38-0.02t2.22-0.06q0,0.4-0.06,0.84t-0.14,0.76q-1.4,0.04-1.62,0.64t1.02,2.32l0.9,1.2t1.18,1.6l0.48,0.64q1.04,1.4,2.14,2.88t1.86,2.64q0.88,1.24,1.44,1.96t1.02,1t0.98,0.32q0.16,0.4,0.18,0.78t0.02,0.9q-1.24-0.08-2.2-0.08l-2,0l-1.08,0l-1.14,0t-1.18,0.02t-1.2,0.06q0-0.52,0.02-0.92t0.14-0.76q1.4-0.04,1.68-0.58t-0.64-1.9z M34.72,37.56l2.2-3.4q1.04-1.6,0.96-2.26t-1.4-0.7q-0.16-0.36-0.2-0.78t-0.04-0.82q0.76,0.04,1.56,0.06t2,0.02t1.96-0.02t1.4-0.06q0,0.4-0.08,0.84t-0.16,0.76q-0.6,0.04-1.08,0.24t-1.02,0.78t-1.38,1.74l-3.52,4.96z M46.36,57.8q0-0.56,0.04-0.98t0.16-0.74q1.08-0.08,1.68-0.38t0.84-1.04t0.24-2.06l0-17.6q0-0.96-0.2-1.56t-0.84-0.92t-1.96-0.36q0-0.44,0.08-0.8t0.28-0.68q1.24-0.08,2.84-0.48t2.52-0.88q0.36,0.12,0.62,0.5t0.26,1.26q0,0.92-0.26,1.74t-0.7,2.18l0.96,0.76l0,16.04q0,1.72,0.36,2.62t1.16,1.24t2.04,0.42q0.12,0.32,0.16,0.74t0.04,0.98q-0.6-0.04-1.42-0.06t-1.74-0.04t-1.88-0.02q-1.4,0-2.94,0.02t-2.34,0.1z M56.24,48.36q-1.12,0-1.98-0.2t-1.9-0.52l0-3.08q0.8,0.84,1.74,1.4t2.34,0.56q0.84,0,1.82-0.34t1.9-1.18t1.5-2.36t0.58-3.92q0-2.12-0.58-3.66t-1.6-2.38t-2.3-0.84q-1.16,0-2.28,0.74t-1.84,2.42t-0.72,4.48l-1.16-4.24q0.52-1.28,0.9-1.96t0.58-1q0.36-0.6,1.14-1.3t1.9-1.18t2.44-0.48q2.36,0,4.02,0.92t2.56,2.8t0.9,4.8q0,2.96-1.24,5.36t-3.48,3.78t-5.24,1.38z M77.88,48.36q-2.84,0-4.72-1.28t-2.82-3.46t-0.94-4.78q0-2.56,1-4.72t2.86-3.48t4.42-1.32q2.6,0,4.18,1.12t2.36,3t0.94,4.16q-0.16,0.8-0.6,1.36l-2.04,0t-3.08,0.02t-3.52,0.08t-3.4,0.14l0-2.04l8.48,0q0-2.64-0.96-4.28t-2.72-1.64q-0.96,0-1.88,0.58t-1.52,2.04t-0.6,4.14q0,1.96,0.5,3.82t1.76,3.08t3.58,1.22q1.32,0,2.6-0.6t2.28-1.72q0.32,0.16,0.62,0.54t0.34,0.7q-1.36,1.8-3.14,2.56t-3.98,0.76z M94.8,42.12q0,1.72,0.36,2.62t1.16,1.24t2.04,0.42q0.12,0.32,0.16,0.74t0.04,0.98q-0.6-0.04-1.42-0.06t-1.74-0.04t-1.88-0.02q-1.4,0-2.94,0.02t-2.34,0.1q0-0.56,0.04-0.98t0.16-0.74q1.08-0.08,1.68-0.38t0.84-1.04t0.24-2.06l0-4l3.6,0l0,3.2z M94.8,36.28l0,3.16l-3.6,0l0-4.44l3.6-3.92q0,1.36-0.24,2.46t-0.44,2.18z M93.92,35.96q0.44-1.12,0.68-1.84t0.52-1.2q0.88-1.4,2.08-2.32t2.76-0.92q1.52,0,2.76,0.96q-0.08,0.64-0.16,1.48t-0.1,1.68t-0.02,1.56q-0.36,0.12-0.98,0.24t-1.3,0.12q-0.08-1.92-0.62-2.52t-1.34-0.6q-0.68,0-1.48,0.78t-1.36,2.06t-0.56,2.84z M91.2,39.44l0-4.44q0-0.96-0.2-1.56t-0.84-0.92t-1.96-0.36q0-0.44,0.08-0.8t0.28-0.68q1.24-0.08,2.84-0.48t2.52-0.88q0.36,0.12,0.62,0.5t0.26,1.26z"/></g></svg>